<?xml version="1.0" encoding="UTF-8"?>
<svg width="256px" height="256px" viewBox="0 0 256 256" version="1.1" xmlns="http://www.w3.org/2000/svg" xmlns:xlink="http://www.w3.org/1999/xlink" preserveAspectRatio="xMidYMid">
    <g>
        <path d="M128,0 C57.3076,0 0,57.3076 0,128 C0,198.692 57.3076,256 128,256 C198.692,256 256,198.692 256,128 C256,57.3076 198.692,0 128,0 Z" fill="#4285F4"></path>
        <path d="M128,48 C82.7452,48 48,82.7452 48,128 C48,173.255 82.7452,208 128,208 C173.255,208 208,173.255 208,128 C208,82.7452 173.255,48 128,48 Z" fill="#FFFFFF"></path>
        <path d="M128,80 C102.745,80 80,102.745 80,128 C80,153.255 102.745,176 128,176 C153.255,176 176,153.255 176,128 C176,102.745 153.255,80 128,80 Z" fill="#4285F4"></path>
    </g>
</svg> 