<?xml version="1.0" encoding="UTF-8"?>
<svg width="256px" height="256px" viewBox="0 0 256 256" version="1.1" xmlns="http://www.w3.org/2000/svg" xmlns:xlink="http://www.w3.org/1999/xlink" preserveAspectRatio="xMidYMid">
    <g>
        <path d="M256,128 C256,57.3076 198.692,0 128,0 C57.3076,0 0,57.3076 0,128 C0,198.692 57.3076,256 128,256 C198.692,256 256,198.692 256,128 Z" fill="#A6CE39"></path>
        <path d="M86.3,186.2H70.9V79.1h15.4v107.1zM108.9,79.1h41.6c39.6,0 57,28.3 57,46.4 0,27.5-21.5,46.4-49.7,46.4h-31.1V79.1zM124.3,170.3h24.5c34.9,0 42.9-26.5 42.9-46.4C191.7,111.2 178,93,147,93h-22.7V170.3zM88.7,56.8c0,5.5-4.5,10.1-10.1,10.1s-10.1-4.6-10.1-10.1c0-5.6 4.5-10.1 10.1-10.1S88.7,51.3 88.7,56.8z" fill="#FFFFFF"></path>
    </g>
</svg> 